<?xml version="1.0" encoding="UTF-8" standalone="no"?>

<!DOCTYPE svg PUBLIC "-//W3C//DTD SVG 1.1//EN" "http://www.w3.org/Graphics/SVG/1.1/DTD/svg11.dtd">

<svg version="1.1" xmlns="http://www.w3.org/2000/svg" xmlns:xlink="http://www.w3.org/1999/xlink" preserveAspectRatio="xMidYMid meet" viewBox="0 0 640 640" width="640" height="640">
<defs>
<path d="M341.29 243.43L341.65 319.11L120.46 320.15L119.69 156.18C258.61 156.09 359.48 155.61 422.29 154.75C485.1 153.89 522.55 183.15 534.66 242.51L341.29 243.43Z" id="bk2TrswF">
</path>
<path d="M61.97 366.61L149.35 366.19L385.51 365.07L386.63 599.94C278.2 599.65 199.48 600.02 150.46 601.06C101.44 602.09 72.12 560.08 62.49 475.01L61.97 366.61Z" id="g3acC7a2Le">
</path>
<path d="M563.38 275.11L530.37 275.27L441.14 275.69L441.69 391.18C482.65 390.59 512.39 390.45 530.92 390.76C536.94 390.86 542.15 388.73 546.56 384.37C555.72 375.33 561.41 356.68 563.63 328.41L563.38 275.11Z" id="g1C1ZBlZnU">
</path>
<path d="M255.18 560.26L255.54 536.54L256.51 472.44L120.67 470.37C120.69 499.81 120.37 521.18 119.7 534.47C119.48 538.8 121.9 542.59 126.95 545.85C137.43 552.62 159.28 557.11 192.48 559.3L255.18 560.26Z" id="c34nwx6U91">
</path>
<path d="M500.14 520.64L469.5 521.02L468.49 439.9L534.88 439.07C535.29 490.02 535.75 527.02 536.27 550.05C536.78 573.09 525.04 586.92 501.03 591.56L500.14 520.64Z" id="d284k9p2m">
</path>
</defs>
<g>
<g>
<g>
<use xlink:href="#bk2TrswF" opacity="1" fill="#45e7ff" fill-opacity="1">
</use>
<g>
<use xlink:href="#bk2TrswF" opacity="1" fill-opacity="0" stroke="#000000" stroke-width="0" stroke-opacity="1">
</use>
</g>
</g>
<g>
<use xlink:href="#g3acC7a2Le" opacity="1" fill="#ff86ed" fill-opacity="1">
</use>
<g>
<use xlink:href="#g3acC7a2Le" opacity="1" fill-opacity="0" stroke="#000000" stroke-width="0" stroke-opacity="1">
</use>
</g>
</g>
<g>
<use xlink:href="#g1C1ZBlZnU" opacity="1" fill="#b259fc" fill-opacity="1">
</use>
<g>
<use xlink:href="#g1C1ZBlZnU" opacity="1" fill-opacity="0" stroke="#000000" stroke-width="0" stroke-opacity="1">
</use>
</g>
</g>
<g>
<use xlink:href="#c34nwx6U91" opacity="1" fill="#b259fc" fill-opacity="1">
</use>
<g>
<use xlink:href="#c34nwx6U91" opacity="1" fill-opacity="0" stroke="#000000" stroke-width="0" stroke-opacity="1">
</use>
</g>
</g>
<g>
<use xlink:href="#d284k9p2m" opacity="1" fill="#4550ff" fill-opacity="1">
</use>
<g>
<use xlink:href="#d284k9p2m" opacity="1" fill-opacity="0" stroke="#000000" stroke-width="0" stroke-opacity="1">
</use>
</g>
</g>
</g>
</g>
</svg>
