<svg xmlns="http://www.w3.org/2000/svg" viewBox="0 0 145 96"><defs/><g fill="none" fill-rule="nonzero"><path fill="#EA80FC" stroke="#EA80FC" stroke-width="13" d="M26.7 8a28.2 28.2 0 0123.5 5h.1l.4-.3c3-2 6.9-3.6 11.4-4l.5-.1a24.6 24.6 0 0118.7 6.1l1-.6c5.6-3.7 12.6-5 19.1-3.7a24 24 0 0115.8 11c3.8 6 9.3 14.8 16.6 26a25.6 25.6 0 014 15.9 28 28 0 01-20.1 24.4 26.3 26.3 0 01-23-5.2h-.2 0a26.4 26.4 0 01-18.7 4.4h-.5c-4.3-.8-8.5-2.7-12-6-4.8 3.2-10.4 5-16 4.9a23.6 23.6 0 01-19.8-11.5L10.9 48.2c-3.3-5-4.4-10.6-4-16 .4-5.6 2.6-11 6.2-15.4 3.5-4.2 8.2-7.4 13.6-8.8zm78.7 44.8l.1.3c.7 2.6 1 5 1 7.5v.4l4.5.5h0l-5.2-8-.2-.4-.2-.3zm-72-18.9l5.8 9 .2.3-.1-.4c-.9-2.8-1.2-5.4-1-8v-.1z"/><path fill="#FFF" d="M16.3 44.7C6.6 29.4 21.6 8 40.7 15c-2.9 3.6-5 7.6-6.4 12.5-6.5-1-9 5.6-6.6 9.3l16.6 26c4 6.5 13.9-.4 9.8-6.8l-5-7.8-.1-.2-.2-.3-.1-.2-.5-.7a20.3 20.3 0 013-26.2c2.7-2.7 6.7-5 12-5.5a18 18 0 0117.5 9c1.4-1.8 3.2-3.4 5-4.6 8.2-5.3 20.2-4 26 5.3l16.6 26.1c10 15.8-6.4 37-24.4 29.6a34 34 0 006.4-12.5c6.6.9 9-5.5 6.6-9.2l-16.6-26.1c-2-3.3-5.7-2.9-7.8-1.5-3 1.9-3.5 5.6-2.3 7.5l2.6 4.2.3.6 3.2 5c7 11 3.2 22-4.4 27.8-7.8 6.3-21.2 6.8-28-4.8-7.6 9.3-23.1 11.6-31-.7L16.3 44.7zm44.4-14.6a6.4 6.4 0 00-1.5 8.3l16.5 26c1.7 2.6 5 3.1 7.7 1.5a6.3 6.3 0 002-8.4L68.8 31.4c-2-3.3-5.9-3-8.1-1.3z"/></g></svg>